<svg xmlns="http://www.w3.org/2000/svg" width="19.111" height="19.111" viewBox="0 0 19.111 19.111">
  <g id="instagram" opacity="0.6">
    <path id="Path_169" data-name="Path 169" d="M13.938,0H5.173A5.179,5.179,0,0,0,0,5.173v8.765a5.179,5.179,0,0,0,5.173,5.173h8.765a5.179,5.179,0,0,0,5.173-5.173V5.173A5.179,5.179,0,0,0,13.938,0ZM9.556,14.781a5.226,5.226,0,1,1,5.226-5.226A5.232,5.232,0,0,1,9.556,14.781Zm5.351-9.219a1.544,1.544,0,1,1,1.544-1.544A1.546,1.546,0,0,1,14.906,5.562Zm0,0" transform="translate(0 0)" fill="#5861ae"/>
    <path id="Path_170" data-name="Path 170" d="M150.125,146.02a4.105,4.105,0,1,0,4.105,4.105A4.11,4.11,0,0,0,150.125,146.02Zm0,0" transform="translate(-140.569 -140.569)" fill="#5861ae"/>
    <path id="Path_171" data-name="Path 171" d="M388.416,96.3a.424.424,0,1,0,.424.424A.424.424,0,0,0,388.416,96.3Zm0,0" transform="translate(-373.51 -92.706)" fill="#5861ae"/>
  </g>
</svg>
