<svg id="bleach" xmlns="http://www.w3.org/2000/svg" width="15.771" height="26.048" viewBox="0 0 15.771 26.048">
  <path id="Path_1757" data-name="Path 1757" d="M100,0h5.6V2.035H100Zm0,0" transform="translate(-94.912)" fill="#9b9b9b"/>
  <path id="Path_1758" data-name="Path 1758" d="M14.2,73.742C13.028,71.329,11.507,70,9.921,70H5.851c-1.586,0-3.107,1.329-4.284,3.742A15.72,15.72,0,0,0,0,80.175V92.487H15.772V80.175A15.72,15.72,0,0,0,14.2,73.742ZM6.359,89.435H3.053V87.908H6.359Zm1.526-3.053H3.053V84.856H7.886Zm4.579-6.359a1.526,1.526,0,1,1-3.053,0V76.97a1.526,1.526,0,1,1,3.053,0Zm0,0" transform="translate(0 -66.439)" fill="#9b9b9b"/>
</svg>
