<svg id="ironing" xmlns="http://www.w3.org/2000/svg" width="26.105" height="26.105" viewBox="0 0 26.105 26.105">
  <path id="Path_1759" data-name="Path 1759" d="M364.977,6.118h.766a.765.765,0,0,0,.765-.765h1.531a.765.765,0,0,0,0-1.53h-1.531V2.294h1.531a.765.765,0,0,0,0-1.53h-1.531A.765.765,0,0,0,365.743,0h-.766a3.059,3.059,0,0,0,0,6.118Z" transform="translate(-343.465)" fill="#5861ae"/>
  <path id="Path_1760" data-name="Path 1760" d="M51.078,55.131a2.294,2.294,0,0,0-.258-4.574H32.176a2.014,2.014,0,1,1,0-4.028H44A4.595,4.595,0,0,1,44,45H32.176a3.543,3.543,0,1,0,0,7.087H50.82a.765.765,0,1,1,0,1.53H43.382A15.78,15.78,0,0,0,28.463,64.273H53.115a13.971,13.971,0,0,0-.032-2.445Zm-2.7,7.663h-9.8a.765.765,0,0,1-.669-.395l-1.53-2.769a.765.765,0,0,1,.264-1.019,12.712,12.712,0,0,1,6.739-1.936h4.133a.765.765,0,0,1,.752.624l.861,4.589A.765.765,0,0,1,48.376,62.794Z" transform="translate(-27.012 -42.706)" fill="#5861ae"/>
  <path id="Path_1761" data-name="Path 1761" d="M222.363,304a11.174,11.174,0,0,0-5.3,1.34l.95,1.719h8.425L225.862,304Z" transform="translate(-205.993 -288.5)" fill="#5861ae"/>
  <path id="Path_1762" data-name="Path 1762" d="M.739,454.48a.764.764,0,0,0,.026,1.528H25.338a.765.765,0,0,0,.765-.765V453H1.011q-.17.727-.273,1.48Z" transform="translate(0 -429.904)" fill="#5861ae"/>
</svg>
